<?xml version="1.0" encoding="utf-8"?>
<!-- Generator: Adobe Illustrator 16.0.0, SVG Export Plug-In . SVG Version: 6.00 Build 0)  -->
<!DOCTYPE svg PUBLIC "-//W3C//DTD SVG 1.1//EN" "http://www.w3.org/Graphics/SVG/1.1/DTD/svg11.dtd">
<svg version="1.1" xmlns="http://www.w3.org/2000/svg" xmlns:xlink="http://www.w3.org/1999/xlink" x="0px" y="0px" width="400px"
	 height="400px" viewBox="0 0 400 400" enable-background="new 0 0 400 400" xml:space="preserve">
<g id="BACKGROUND">
</g>
<g id="OBJECTS">
	<path fill="#231F20" d="M212.109,294.958"/>
	<g>
		<g>
			<g>
				<path fill="#231F20" d="M328.75,151.01c0,0-18.14,9.05-29.46,12.08c-7.59,2.03-10.78,11.85-12.04,22.42
					c-0.64,5.23-0.81,10.62-0.81,15.36c0,14.34,14.35,94.39-68.74,126.1c0,0-3.645,0.9-15.515,5.221
					c-1.36-1.04-8.896,1.079-10.226,0c-5.41,1.989-10.74,3.04-15.99,3.159c-0.02,0.011-0.04,0.011-0.06,0.011
					c-15.22,0.35-29.83-7.091-44.32-21.78c-6.32-6.39-12.609-14.16-18.92-23.271c-10.84-15.64-19.11-32.56-23.55-50.609
					l41.33-12.813c5.37-5.631,12.26-13.09,20.28-21.26c21.119-21.49,50.17-47.98,80.09-59.38c16.069-6.13,32.42-7.93,47.91-2.24
					c0,0,9.029-1.467,18.869,7.453C297.6,151.46,318.928,152.946,328.75,151.01z"/>
				<g>
					<path fill="#231F20" d="M322.441,140.216c-2.218,1.103-4.46,2.154-6.707,3.194c-5.465,2.53-8.078,3.659-13.862,5.753
						c-6.019,2.18-11.426,3.536-16.327,7.96c-5.19,4.686-7.832,12.257-9.341,18.867c-3.156,13.827-1.869,27.32-1.411,41.208
						c0.199,6.024,0.081,12.056-0.378,18.066c-0.125,1.632-0.292,3.26-0.474,4.887c-0.083,0.734-0.484,3.676,0.019,0.022
						c-0.117,0.852-0.252,1.701-0.386,2.55c-0.604,3.824-1.427,7.611-2.398,11.358c-0.946,3.645-2.121,7.226-3.443,10.75
						c-0.34,0.906-0.705,1.803-1.071,2.699c1.196-2.932-0.096,0.137-0.312,0.61c-0.969,2.129-2.045,4.206-3.165,6.259
						c-1.999,3.663-4.298,7.154-6.767,10.517c-2.111,2.876,1.561-1.923-0.708,0.884c-0.693,0.857-1.417,1.689-2.14,2.521
						c-1.735,1.997-3.59,3.889-5.486,5.733c-4.348,4.229-6.556,5.887-10.67,8.727c-4.807,3.318-9.929,6.157-15.169,8.724
						c-7.104,3.479-15.297,5.702-23.383,8.63c3.211,0.42,6.422,0.84,9.632,1.261c-3.072-1.317-5.936-2.15-9.269-1.93
						c-1.091,0.072-2.182,0.239-3.267,0.365c-3.109,0.362-3.02-0.86,2.31,1.564c-5.559-2.529-9.544-1.081-15.015,0.416
						c-1.153,0.315-2.586,0.676-3.772,0.818c-1.119,0.135-10.413,0.276-4.996,0.238c-10.511,0.073-21.171-6.246-29.978-14.189
						c-20.761-18.723-36.496-45.28-43.334-72.304c-2.91,5.126-5.82,10.251-8.73,15.377c11.914-3.694,23.828-7.388,35.742-11.081
						c1.777-0.552,3.555-1.103,5.332-1.653c5.77-1.789,9.781-7.531,13.798-11.787c9.546-10.114,19.265-20.055,29.47-29.508
						c19.946-18.478,42.979-36.824,69.894-43.264c5.84-1.397,12.319-1.973,18.287-1.119c3.571,0.511,7.044,1.533,10.441,2.719
						c1.513,0.527,11.484-0.498,3.586,0.414c0.647-0.075,1.303-0.058,1.953-0.044c2.731,0.058-3.128-0.625,0.206,0.011
						c1.178,0.225,2.313,0.623,3.442,1.015c-1.735-0.602,2.683,1.646,2.351,1.444c1.627,0.988,2.66,2.366,4.346,3.353
						c3.492,2.046,8.233,1.846,12.202,2.02c9.532,0.417,19.157,0.49,28.58-1.21c6.711-1.211,10.412-9.261,8.73-15.377
						c-1.928-7.006-8.678-9.939-15.377-8.73c-1.358,0.229-1.23,0.229,0.384,0c-0.733,0.084-1.468,0.156-2.203,0.215
						c-1.595,0.141-3.196,0.2-4.795,0.258c-3.303,0.122-6.611,0.084-9.914,0.019c-3.768-0.074-7.539-0.231-11.299-0.488
						c2.946,1.22,5.893,2.441,8.839,3.661c-8.889-7.634-19.229-12.353-31.031-10.668c2.216,0,4.431,0,6.646,0
						c-32.523-11.344-66.304,4.346-92.577,23.138c-25.275,18.078-46.539,40.547-67.865,62.957c1.839-1.071,3.678-2.144,5.516-3.215
						c-13.776,4.271-27.553,8.543-41.33,12.813c-6.604,2.048-10.442,8.611-8.73,15.377c7.179,28.366,22.778,54.315,42.341,75.884
						c9.832,10.839,21.38,19.513,34.899,25.112c5.911,2.448,12.405,3.452,18.757,3.815c2.115,0.12,4.057-0.04,6.17-0.421
						c-4.246,0.766,1.581,0.058,2.013,0.006c4.842-0.583,9.434-1.569,14.037-3.176c-3.211-0.42-6.422-0.84-9.632-1.261
						c3.075,1.399,5.83,2.168,9.249,1.955c2.272-0.141,4.542-0.744,6.823-0.446c-2.103-0.568-4.206-1.138-6.309-1.706
						c7.735,3.315,13.685,0.067,21.055-2.368c2.493-0.824,4.94-1.532,7.38-2.507c11.128-4.447,21.708-9.939,31.253-17.221
						c16.386-12.5,28.265-28.377,36.032-47.412c5.783-14.172,8.137-29.763,8.667-44.99c0.313-9.013-0.64-17.91-0.855-26.897
						c-0.152-6.349,0.221-13.016,1.364-18.753c0.706-3.539,1.242-5.149,2.619-7.514c-0.779,0.834-0.681,0.727,0.293-0.322
						c-1.075,0.694-0.998,0.666,0.229-0.083c-2.134,1.264,2.08-0.439,2.617-0.61c9.951-3.168,19.646-7.658,28.99-12.305
						c6.098-3.033,7.752-11.526,4.484-17.103C335.931,138.533,328.542,137.182,322.441,140.216z"/>
				</g>
			</g>
			<g>
				<g>
					<path fill="#231F20" d="M191.501,318.887c-1.104,0.535-2.221,1.043-3.351,1.521c0.996-0.42,1.991-0.84,2.986-1.26
						c-0.828,0.344-1.66,0.674-2.5,0.988c-3.161,1.187-5.712,2.743-7.47,5.745c-1.691,2.887-2.147,6.405-1.261,9.632
						c0.859,3.124,2.95,5.833,5.745,7.47c2.673,1.566,6.628,2.388,9.632,1.261c2.996-1.125,5.956-2.374,8.835-3.771
						c2.806-1.36,4.941-4.55,5.745-7.47c0.887-3.227,0.431-6.745-1.261-9.632c-1.637-2.795-4.346-4.886-7.47-5.745
						C197.699,316.682,194.615,317.375,191.501,318.887L191.501,318.887z"/>
				</g>
			</g>
			<g>
				<g>
					<path fill="#231F20" d="M269.892,66.151c-7.335,5.721-16.688,7.15-25.625,7.658c-11.677,0.663-23.384-0.294-35.066,0.314
						c-13.472,0.701-25.145,4.362-37.505,9.465c-11.458,4.73-22.785,9.8-33.146,16.664c-10.746,7.12-19.578,15.942-27.199,26.287
						c-8.221,11.158-13.527,24.347-19.863,36.599c-5.99,11.584-14.841,22.047-17.411,35.114c-2.86,14.54-0.407,30.539,2.99,44.771
						c3.743,15.677,27.85,9.026,24.107-6.646c-2.582-10.812-4.837-24.045-2.356-34.387c1.18-4.921,4.193-9.208,6.945-13.381
						c3.724-5.647,6.79-11.76,9.833-17.791c5.585-11.071,10.602-23.232,18.277-32.913c6.837-8.625,14.402-14.578,23.56-19.981
						c9.813-5.791,20.414-10.102,30.979-14.295c10.682-4.24,20.075-4.75,31.518-4.762c11.072-0.013,22.148,0.594,33.161-0.877
						c13.009-1.737,24.101-6.065,34.479-14.16c5.383-4.198,4.372-13.305,0-17.678C282.312,60.894,275.259,61.965,269.892,66.151
						L269.892,66.151z"/>
				</g>
			</g>
			<g>
				<g>
					<path fill="#231F20" d="M98.904,200.884c5.233-7.889,7.02-17.848,8.235-27.052c1.402-10.619,0.927-20.726-4.352-30.313
						c-2.604-4.728-6.376-8.723-9.142-13.354c-2.902-4.859-5.876-9.666-8.558-14.653c-2.31-4.295-3.969-8.344-5.185-13.103
						c-1.151-4.506-0.748-7.677,1.249-12.525c2.6-6.312-2.765-13.736-8.73-15.377c-7.178-1.974-12.784,2.436-15.377,8.73
						c-8.771,21.295,5.098,44.751,16.639,62.115c2.592,3.899,6.642,7.981,8.313,12.095c0.363,0.985,0.644,1.994,0.84,3.025
						c-0.753-3.223-0.044-0.047,0.005,0.698c0.131,2.004,0.052,4.021-0.043,6.025c-0.228,4.808-0.56,6.299-1.733,11.341
						c-0.482,2.071-1.109,4.103-1.799,6.112c-1.23,3.584,1.025-1.985-0.484,1.144c-0.419,0.867-0.935,1.674-1.465,2.475
						c-3.771,5.685-1.142,13.808,4.484,17.103C87.933,208.959,95.146,206.55,98.904,200.884L98.904,200.884z"/>
				</g>
			</g>
			<g>
				<g>
					<path fill="#231F20" d="M157.815,118.038c6.566-4.254,13.398-8.532,18.966-14.081c6.15-6.13,7.376-13.967,6.622-22.283
						c-0.042-0.457,0.328-5.517-0.176-2c0.164-1.143,0.423-2.271,0.674-3.397c0.656-2.938,1.646-5.795,2.738-8.594
						c-0.764,1.958,0.99-1.892,0.943-1.8c0.573-1.128,1.24-2.202,1.913-3.271c1.991-3.164-1.435,1.458,0.895-1.133
						c1.076-0.984,1.01-1.013-0.2-0.085c1.236-0.712,1.063-0.717-0.519-0.013c6.331-2.502,10.685-8.271,8.73-15.376
						c-1.66-6.036-9.03-11.239-15.377-8.731c-13.03,5.15-19.446,18.287-22.936,31.166c-0.792,2.924-1.229,5.964-1.566,8.968
						c-0.327,2.918,0.78,6.415,0.401,9c0.044-0.296,2.297-2.491,0.179-0.127c-0.942,1.052-2.089,2.084-3.212,2.936
						c-3.428,2.598-7.087,4.9-10.693,7.236c-5.707,3.697-8.048,11.02-4.484,17.103C144.036,119.227,152.092,121.747,157.815,118.038
						L157.815,118.038z"/>
				</g>
			</g>
		</g>
		<path fill="#231F20" d="M175.97,335.35c-0.02,0.011-0.029,0.021-0.029,0.021l-0.03-0.01
			C175.93,335.36,175.95,335.36,175.97,335.35z"/>
	</g>
</g>
</svg>
